<?xml version="1.0" encoding="utf-8"?>
<!-- Generator: Adobe Illustrator 27.5.0, SVG Export Plug-In . SVG Version: 6.00 Build 0)  -->
<svg version="1.1" id="Layer_1" xmlns="http://www.w3.org/2000/svg" xmlns:xlink="http://www.w3.org/1999/xlink" x="0px" y="0px"
	 viewBox="0 0 3189 2000" style="enable-background:new 0 0 3189 2000;" xml:space="preserve">
<rect style="fill:#FFFFFF;" width="3189" height="2000"/>
<g>
	<path style="fill:#B5D1FB;" d="M2673.736,1829.889c96.019-144.187,333.028-952.154,178.229-1046.203
		c-170.067-103.324-306.728,68.882-440.351-67.869c-58.278-59.643-10.123-207.66-130.586-256.283
		c-169.206-68.296-593.206,188.413-526.396-1.013c66.813-189.426-387.709-320.099-821.222-295.013
		c-433.513,25.086-353.042,281.844-346.969,323.376c6.074,41.532,69.849,242.101-177.152,334.281
		c-247,92.18-190.312,217.789-166.017,289.71c21.16,62.642,140.71,136.752-33.405,298.827
		c-144.961,134.937-31.362,351.456,10.747,420.187H2673.736z"/>
	<path style="opacity:0.5;fill:#7AA3CC;" d="M2893.671,1083.254h-84.204V763.017c-90.998-33.638-172.575,1.777-249.859,7.555v57.018
		h-159.251v-95.895h-115.319v156.554h-118.065V610.847H1983.01c0,0,0,293.881,0,310.36h-54.914v-84.452h-53.541l-207.301-2.959
		h-96.099V726.202h-285.554v-90.636h-161.996v274.655h-65.897V786.626h-79.625v90.613h-96.1V395.242H836.68l-83.744,83.77v236.203
		h-81.222v-57.678h-84.917c-0.433,1.349-0.884,2.698-1.346,4.049c-0.001,0.003-0.001,0.005-0.003,0.007v215.668H453.654v-75.4
		c-13.543,6.843-28.29,13.305-44.364,19.304c-247,92.18-190.312,217.789-166.017,289.71c21.16,62.642,140.71,136.752-33.405,298.827
		c-144.961,134.937-31.362,351.456,10.747,420.187h2453.121C2736.336,1735.887,2858.859,1359.756,2893.671,1083.254
		L2893.671,1083.254z"/>
	<path style="fill:#96D9C9;" d="M919.017,1839.037c18.602-15.943,29.855-32.855,26.974-49.674
		c-5.14-30.004-47.736-10.723-49.354-32.385c-2.816-37.693,159.769-28.877,154.397-77.203
		c-5.252-47.25-124.752,30.043-129.752-4.105c-3.087-21.088,177.59-19.305,181.262-67.248
		c3.671-47.945-130.732-1.561-157.213-15.645c-26.482-14.084,254.734-99.412,226.586-162.109
		c-22.958-51.135-210.429,68.486-241.309,56.477c-30.88-12.01,118.928-113.232,165.236-205.863
		c47.889-95.793,8.745-144.023-67.048-67.843c-75.793,76.181-200.519,221.589-205.646,177.792
		c-5.126-43.797,80.073-205.729,10.861-193.607c-121.753,21.322-131.808,222.783-169.549,380.238
		c-3.997,16.674-44.727-179.621-94.103-120.449c-25.398,30.436,21.704,254.564,51.064,381.625H919.017z"/>
	<path style="fill:#96D9C9;" d="M681.016,1847.367c18.603-15.943,29.855-32.854,26.974-49.674
		c-5.14-30.003-47.736-10.722-49.355-32.384c-2.816-37.693,159.769-28.877,154.397-77.204
		c-5.253-47.25-124.753,30.043-129.752-4.105c-3.088-21.088,177.59-19.304,181.262-67.248c3.671-47.945-130.732-1.56-157.213-15.644
		c-26.481-14.084,254.734-99.413,226.587-162.11c-22.958-51.135-210.429,68.487-241.309,56.478
		c-30.88-12.011,118.928-113.233,165.236-205.863c47.889-95.793,8.746-144.024-67.048-67.845
		c-75.792,76.182-200.519,221.59-205.645,177.793c-5.126-43.797,80.073-205.729,10.861-193.607
		c-121.754,21.322-131.808,222.784-169.549,380.239c-3.997,16.673-48.35-203.743-97.726-144.571
		c-25.398,30.437,31,268.805,114,405.746H681.016z"/>
	<path style="fill:#96D9C9;" d="M786.896,1839.037c18.603-15.943,29.855-32.855,26.974-49.674
		c-5.14-30.004-47.736-10.723-49.355-32.385c-2.816-37.693,159.769-28.877,154.397-77.203
		c-5.253-47.25-124.753,30.043-129.752-4.105c-3.087-21.088,177.59-19.305,181.262-67.248
		c3.671-47.945-130.732-1.561-157.214-15.645c-26.481-14.084,254.734-99.412,226.587-162.109
		c-22.958-51.135-210.429,68.486-241.309,56.477c-30.88-12.01,118.928-113.232,165.236-205.863
		c47.889-95.793,8.746-144.023-67.048-67.843c-75.793,76.181-200.519,221.589-205.645,177.792
		c-5.126-43.797,80.073-205.729,10.861-193.607c-121.753,21.322-131.807,222.783-169.549,380.238
		c-3.997,16.674-80.491-280.694-126.553-218.908c-48.492,65.047,54.154,353.023,83.515,480.084H786.896z"/>
	<path style="fill:#96D9C9;" d="M2415.672,1677.65c-24.848-12.368-33.491,29.292-50.31,18.825
		c-29.266-18.214,64.411-132.886,25.944-154.944c-37.607-21.566-44.775,107.794-72.601,93.092
		c-17.184-9.079,94.188-197.717,60.853-226.213c-33.334-28.496-84.822,107.053-95.822,107.053
		c-27.289,0,50.228-183.695-11.033-196.758c-27.387-5.84-43.502,52.234-56.657,108.578c6.509-53.156,7.67-101.346-11.81-110.662
		c-29.887-14.293-39.879,51.22-45.425,122.014c-7.004-47.884-16.528-105.055-36.899-144.438
		c-44.855-86.719-101.36-83.921-85.91,12.739c3.729,23.322,8.896,50.906,14.102,79.059l-0.001-0.004
		c-32.36-131.342-88.343-137.865-69.022-5.122c-6.263-31.421-14.693-62.419-27.238-86.672
		c-44.855-86.719-101.36-83.921-85.91,12.739c6.017,37.636,15.782,86.367,23.4,130.68c-9.785,42.641-18.144,81.933-28.768,88.716
		c-0.227,0.145-0.45,0.271-0.672,0.388c-4.431-5.565-9.041-11.636-13.764-17.941c-11.135-43.297-15.99-151.648-48.541-214.581
		c-44.856-86.719-101.361-83.921-85.911,12.739c7.36,46.043,20.333,108.693,28.118,159.542c-9.411,30-9.013,59.218-1.098,88.602
		c-1.768,0.423-3.883-0.021-6.381-1.434c-34.997-19.802-108.546-169.511-136.735-112.154
		c-49.589,100.899,15.134,190.349,110.835,302.794c10.133,11.906-81.339,1.693-64.247,69.798
		c2.349,9.355,11.521,17.458,24.833,24.448h154.256h168.07h110.506h154.255h168.071
		C2438.168,1770.812,2446.517,1693.003,2415.672,1677.65z"/>
	<path style="fill:#36AD92;" d="M396.741,1830.373c0,0,325.053-282.356,744.177-299.701
		c140.741-5.825,717.039,110.949,1202.332,202.693c20.4,3.857,64.51,41.614,85.166,45.497
		c229.74,43.185,443.846,52.313,513.096,55.101L396.741,1830.373z"/>
	<g>
		<path style="fill:#184655;" d="M2492.551,1714.029c1.164-9.473,1.771-19.163,1.771-29.021
			c0-109.946-75.03-199.076-167.586-199.076c-92.555,0-167.585,89.13-167.585,199.076c0,9.858,0.607,19.549,1.771,29.021H2492.551z"
			/>
		<path style="fill:#3C8F7C;" d="M2682.213,1665.104c1.164-13.361,1.771-27.026,1.771-40.93c0-155.053-75.03-280.75-167.585-280.75
			s-167.585,125.697-167.585,280.75c0,13.903,0.606,27.568,1.771,40.93H2682.213z"/>
		<path style="fill:#3C8F7C;" d="M2620.853,1837.143c-1.165-9.475-1.771-19.163-1.771-29.021
			c0-109.947,75.03-199.076,167.585-199.076c92.554,0,167.585,89.129,167.585,199.076c0,9.858-0.606,19.547-1.771,29.021H2620.853z"
			/>
		<path style="fill:#184655;" d="M2352.646,1837.143c-1.478-13.36-2.246-27.025-2.246-40.928
			c0-155.055,95.116-280.752,212.447-280.752s212.447,125.697,212.447,280.752c0,13.902-0.77,27.567-2.246,40.928H2352.646z"/>
		<path style="fill:#3C8F7C;" d="M2515.764,1515.463c-58.641,0-111.027,39.877-145.602,102.416
			c-17.605-5.742-36.313-8.834-55.703-8.834c-104.111,0-188.512,89.129-188.512,199.076c0,9.858,0.683,19.547,1.993,29.021h574.343
			c1.31-13.36,1.992-27.025,1.992-40.928C2704.275,1641.16,2619.875,1515.463,2515.764,1515.463z"/>
	</g>
	<g>
		<path style="fill:#184655;" d="M2437.752,1044.431c0.15-5.014,7.07-8.908,10.74-4.462c3.658,4.432,3.503,1.438,7.066,11.025
			c10.229,27.518,25.263,54.142,42.762,77.409c33.528,44.579,66.721,67.068,104.406,89.353
			c-15.529-34.989-25.929-72.334-27.254-110.008c-0.482-13.729-0.219-27.968,5.654-40.565c1.641-3.519,7.942-2.796,8.582,1.125
			c3.165,19.44-1.494,34.097,4.798,68.889c15.015,83.02,74.438,171.076,131.763,232.739
			c-10.993-104.391-16.321-223.027,3.339-328.318c3.226-17.271,8.353-33.697,13.116-50.571c1.121-3.969,6.762-2.263,6.068,1.677
			c-0.99,5.615-10.356,78.071-10.922,83.064c-9.086,80.188-7.271,169.02-0.199,250.028c44.467-60.217,74.229-130.642,88.146-204.187
			c4.114-21.74,5.212-44.187,10.98-65.522c0.793-2.939,5.65-3.256,6.254,0c5.924,31.966-5.938,88.514-14.582,119.239
			c-17.518,62.264-45.547,118.076-83.866,167.935c-1.489,1.938,61.54,489.154,59.845,495.324
			c-2.857,10.404-20.982,17.706-23.794-0.753c-1.146-7.518-35.777-303.762-51.405-440.989c-5.904-3.254-9.703-9.041-24.894-26.114
			c-35.155-39.519-69.919-88.688-93.154-135.061c-13.943-0.793-114.629-49.783-164.573-161.339
			c-1.439-3.215-7.925-18.316-8.853-21.685C2436.982,1049.779,2437.666,1047.28,2437.752,1044.431z"/>
		<path style="fill:#184655;" d="M2761.113,886.462c-1.146-14.995-1.744-30.332-1.744-45.935
			c0-174.023,73.86-315.097,164.973-315.097c91.111,0,164.972,141.074,164.972,315.097c0,15.603-0.597,30.94-1.743,45.935H2761.113z
			"/>
		<path style="fill:#3C8F7C;" d="M2574.409,809.022c-1.147-21.148-1.743-42.776-1.743-64.781
			c0-245.419,73.859-444.371,164.972-444.371s164.972,198.952,164.972,444.371c0,22.005-0.597,43.633-1.743,64.781H2574.409z"/>
		<path style="fill:#3C8F7C;" d="M2634.812,1081.324c1.147-14.995,1.743-30.332,1.743-45.936
			c0-174.022-73.859-315.096-164.971-315.096c-91.112,0-164.973,141.074-164.973,315.096c0,15.604,0.596,30.94,1.743,45.936
			H2634.812z"/>
		<path style="fill:#184655;" d="M2898.838,1081.324c1.453-21.147,2.211-42.775,2.211-64.779
			c0-245.42-93.633-444.372-209.136-444.372c-115.502,0-209.134,198.951-209.134,444.372c0,22.004,0.756,43.632,2.21,64.779
			H2898.838z"/>
		<path style="fill:#3C8F7C;" d="M2738.262,572.173c57.727,0,109.297,63.116,143.332,162.102
			c17.33-9.089,35.745-13.983,54.834-13.983c102.488,0,185.572,141.074,185.572,315.097c0,15.604-0.672,30.939-1.961,45.935
			h-565.388c-1.29-21.147-1.962-42.775-1.962-64.779C2552.689,771.125,2635.773,572.173,2738.262,572.173z"/>
	</g>
	<path style="fill:#3C8F7C;" d="M538.304,1318.048l-16.289-39.44c-12.66-28.999-45.849-42.5-74.132-30.152l0,0
		c-61.857,27.002-98.039,109.196-76.737,179.62c6.019,19.899,6.538,41.17,1.065,61.509c-7.364,27.368-10.517,72.061,16.491,129.343
		l8.445,27.282c13.312,30.496,39.698,52.869,71.225,61.83c18.439,5.242,34.606,18.594,42.997,37.816l17.41,39.881
		c19.247,44.094,69.711,64.619,112.713,45.848l24.535-10.711c43.003-18.771,62.261-69.732,43.014-113.824l0,0
		c-31.371-52.613-28.294-92.224-16.578-119.211c17.226-39.684,17.629-85.092,0.085-125.281l-2.46-5.635
		c-18.517-42.42-54.937-73.799-98.628-86.877C572.17,1364.271,552.176,1349.826,538.304,1318.048z"/>
	<g>
		<path style="fill:#184655;" d="M590.238,1165.578c-0.093-3.1-4.372-5.508-6.641-2.759c-2.262,2.74-2.166,0.89-4.369,6.817
			c-6.325,17.014-15.62,33.476-26.44,47.862c-20.73,27.563-41.253,41.469-64.555,55.246c9.602-21.634,16.032-44.724,16.851-68.018
			c0.298-8.488,0.135-17.292-3.496-25.081c-1.014-2.176-4.911-1.729-5.306,0.695c-1.957,12.02,0.923,21.082-2.967,42.594
			c-9.284,51.332-46.025,105.777-81.47,143.904c6.797-64.545,10.092-137.899-2.065-203.001c-1.994-10.679-5.163-20.836-8.109-31.269
			c-0.693-2.454-4.181-1.398-3.752,1.037c0.612,3.472,6.403,48.271,6.753,51.359c5.618,49.58,4.496,104.505,0.123,154.593
			c-27.494-37.232-45.896-80.776-54.501-126.25c-2.544-13.441-3.223-27.319-6.789-40.513c-0.492-1.816-3.495-2.013-3.867,0
			c-3.663,19.766,3.671,54.729,9.016,73.727c10.832,38.498,28.162,73.007,51.855,103.835c0.921,1.198-38.05,302.446-37.003,306.261
			c1.767,6.433,12.974,10.947,14.712-0.466c0.708-4.647,22.122-187.817,31.784-272.665c3.651-2.012,6-5.59,15.392-16.146
			c21.737-24.435,43.232-54.836,57.598-83.508c8.621-0.491,70.875-30.782,101.756-99.758c0.89-1.987,4.9-11.324,5.474-13.406
			C590.713,1168.885,590.291,1167.34,590.238,1165.578z"/>
		<path style="fill:#184655;" d="M390.302,1067.906c0.71-9.271,1.078-18.755,1.078-28.402c0-107.599-45.668-194.825-102.003-194.825
			c-56.334,0-102.002,87.227-102.002,194.825c0,9.647,0.369,19.131,1.078,28.402H390.302z"/>
		<path style="fill:#3C8F7C;" d="M505.742,1020.024c0.71-13.076,1.079-26.449,1.079-40.055
			c0-151.744-45.669-274.756-102.003-274.756c-56.335,0-102.003,123.012-102.003,274.756c0,13.606,0.369,26.978,1.078,40.055
			H505.742z"/>
		<path style="fill:#3C8F7C;" d="M468.395,1188.39c-0.709-9.271-1.078-18.755-1.078-28.401c0-107.6,45.667-194.826,102.002-194.826
			c56.335,0,102.003,87.226,102.003,194.826c0,9.646-0.369,19.13-1.078,28.401H468.395z"/>
		<path style="fill:#184655;" d="M305.147,1188.39c-0.899-13.075-1.367-26.448-1.367-40.054
			c0-151.744,57.894-274.756,129.309-274.756c71.415,0,129.308,123.013,129.308,274.756c0,13.605-0.467,26.979-1.366,40.054H305.147
			z"/>
		<path style="fill:#3C8F7C;" d="M404.431,873.58c-35.693,0-67.579,39.025-88.623,100.229c-10.715-5.62-22.101-8.646-33.904-8.646
			c-63.369,0-114.74,87.226-114.74,194.826c0,9.648,0.416,19.13,1.213,28.401h349.581c0.798-13.075,1.213-26.448,1.213-40.054
			C519.171,996.592,467.8,873.58,404.431,873.58z"/>
	</g>
	<path style="fill:#96D9C9;" d="M855.829,1831.08c-25.029-32.449-260.16-205.919-349.652-234.891
		c-98.785-31.979-5.681,95.035-5.681,95.035s-199.289-214.78-264.086-199.443c-79.597,18.84,24.537,159.708,24.537,159.708
		s-66.394-65.771-146.908-65.771c-78.36,0-10.801,167.233,95.485,245.749L855.829,1831.08z"/>
	<g>
		<g>
			<g>
				<path style="fill:#355389;" d="M156.824,1423.674c7.539,4.553,14.448,10.685,21.327,16.166
					c37.433,29.82,75.41,58.675,127.046,119.342c69.039,81.113,120.608,173.226,152.058,273.822c1.125,3.6,6.798,2.057,5.654-1.563
					c-20.461-64.709-49.478-126.612-85.97-183.784C278.349,1493.192,155.495,1422.871,156.824,1423.674L156.824,1423.674z"/>
			</g>
			<g>
				<path style="fill:#355389;" d="M482.855,1608.17c51.712,51.5,96.794,109.869,130.497,174.785
					c9.462,18.223,17.466,36.973,25.716,55.755c1.095,2.493,5.337,0.715,4.415-1.867c-0.919-2.573-1.839-5.147-2.759-7.722
					c-0.541-1.514-3.273-1.436-3.031,0.411c0.349,2.651,0.697,5.304,1.045,7.955c1.581-0.215,3.163-0.43,4.745-0.645
					c-12.818-33.939-30.607-66.648-49.75-97.37C536.357,1647.393,476.946,1602.284,482.855,1608.17L482.855,1608.17z"/>
			</g>
			<path style="fill:#355389;" d="M218.939,1426.454c-1.409,2.826-7.229,10.486-8.017,19.628
				c-1.526,8.776,1.978,19.034,2.153,18.634c0.534,0.142-8.691-5.769-12.773-16.595c-4.784-10.267-4.427-25.447-0.918-30.934
				c5.71-12.103,18.137-14.923,21.301-9.853C223.995,1412.349,221.683,1420.088,218.939,1426.454z"/>
			<path style="fill:#355389;" d="M304.609,1512.723c-1.062,2.963-5.914,11.229-5.616,20.365c-0.475,8.861,4.2,18.592,4.327,18.176
				c0.546,0.076-9.275-4.676-14.591-14.9c-5.942-9.588-7.379-24.646-4.555-30.488c4.221-12.647,16.179-16.91,19.907-12.271
				C307.946,1498.171,306.572,1506.1,304.609,1512.723z"/>
			<path style="fill:#355389;" d="M547.026,1636.116c-1.528,1.751-7.093,6.126-9.348,12.493c-2.713,5.971-2.116,13.934-1.917,13.682
				c0.355,0.2-5.125-5.73-6.029-14.206c-1.509-8.206,1.558-18.96,5.075-22.216c6.31-7.561,15.688-7.256,17.004-3.053
				C553.241,1627.006,550.16,1632.09,547.026,1636.116z"/>
			<path style="fill:#355389;" d="M511.916,1598.429c-1.528,1.752-7.094,6.126-9.348,12.495c-2.713,5.969-2.116,13.933-1.917,13.681
				c0.355,0.2-5.125-5.73-6.029-14.206c-1.508-8.208,1.558-18.96,5.075-22.216c6.31-7.562,15.688-7.257,17.004-3.054
				C518.131,1589.318,515.051,1594.402,511.916,1598.429z"/>
			<path style="fill:#355389;" d="M473.963,1631.312c1.986-1.204,7.251-5.938,13.897-7.054c6.335-1.639,14.049,0.339,13.767,0.492
				c0.135,0.385-4.733-6.06-12.896-8.431c-7.796-2.92-18.888-1.766-22.698,1.14c-8.523,4.914-9.859,14.228-5.962,16.26
				C463.935,1635.861,469.464,1633.705,473.963,1631.312z"/>
			<path style="fill:#355389;" d="M511.215,1672.208c1.986-1.204,7.252-5.938,13.897-7.054c6.335-1.64,14.049,0.339,13.767,0.491
				c0.135,0.386-4.733-6.058-12.898-8.43c-7.795-2.919-18.888-1.766-22.697,1.14c-8.524,4.914-9.859,14.228-5.962,16.26
				C501.186,1676.758,506.715,1674.602,511.215,1672.208z"/>
			<path style="fill:#355389;" d="M538.462,1707.141c1.986-1.204,7.251-5.938,13.896-7.055c6.335-1.639,14.049,0.339,13.768,0.492
				c0.134,0.385-4.734-6.06-12.897-8.43c-7.796-2.92-18.888-1.767-22.698,1.139c-8.523,4.914-9.859,14.229-5.961,16.262
				C528.434,1711.689,533.962,1709.533,538.462,1707.141z"/>
			<path style="fill:#355389;" d="M182.639,1482.901c1.821-2.265,5.993-10.084,13.327-14.242c6.747-4.64,16.655-5.62,16.388-5.319
				c0.323,0.396-8.143-5.094-18.747-4.383c-10.405-0.092-22.949,6.016-26.188,11.063c-7.925,9.426-5.526,20.943-0.081,21.662
				C172.79,1492.545,178.37,1487.642,182.639,1482.901z"/>
			<path style="fill:#355389;" d="M235.075,1531.455c1.821-2.266,5.993-10.084,13.327-14.242c6.746-4.641,16.654-5.62,16.389-5.32
				c0.322,0.396-8.144-5.093-18.748-4.382c-10.406-0.091-22.949,6.015-26.189,11.062c-7.925,9.426-5.526,20.943-0.081,21.662
				C225.227,1541.098,230.807,1536.195,235.075,1531.455z"/>
			<path style="fill:#355389;" d="M151.755,1442.58c1.442-1.182,5.091-5.538,10.245-7.178c4.848-2.02,11.198-1.322,10.991-1.169
				c0.151,0.291-4.442-4.276-11.194-5.235c-6.522-1.437-15.204,0.736-17.903,3.477c-6.218,4.869-6.229,12.419-2.904,13.592
				C144.301,1447.33,148.45,1444.991,151.755,1442.58z"/>
			<path style="fill:#355389;" d="M165.682,1411.994c-0.074,1.865-1.352,7.41,0.439,12.525c1.306,5.099,5.679,9.77,5.677,9.512
				c0.322-0.055-6.079-0.989-10.902-5.824c-5.064-4.363-8.552-12.627-7.991-16.438c0.142-7.91,6.151-12.458,9.085-10.499
				C164.985,1403.164,165.616,1407.896,165.682,1411.994z"/>
			<g>
				<g>
					<path style="fill:#355389;" d="M546.183,1775.028c2.987,1.868,10.568,8.237,14.451,12.188
						c10.65,10.835,20.295,26.264,25.562,43.683c0.334,1.106,0.444,2.12,1.463,2.765c0.247,0.156,0.62,0.059,0.758-0.199
						c0.622-1.164,0.104-2.241-0.241-3.459c-2.476-8.74-7.559-19.711-15.214-30.381c-12.955-18.057-22.568-22.229-26.719-24.699
						C546.177,1774.887,546.119,1774.987,546.183,1775.028L546.183,1775.028z"/>
				</g>
				<path style="fill:#355389;" d="M535.642,1785.795c1.693-0.776,6.324-4.063,11.723-4.34c5.2-0.724,11.168,1.564,10.928,1.66
					c0.072,0.319-3.218-5.266-9.508-7.908c-5.946-3.046-14.893-3.149-18.196-1.185c-7.245,3.131-9.163,10.433-6.243,12.411
					C527.231,1788.498,531.835,1787.289,535.642,1785.795z"/>
				<path style="fill:#355389;" d="M556.838,1759.744c-0.543,1.786-3.18,6.824-2.739,12.229c-0.026,5.264,3.026,10.894,3.088,10.643
					c0.326,0.03-5.63-2.5-9.075-8.402c-3.797-5.508-5.084-14.389-3.58-17.932c2.135-7.616,9.097-10.489,11.44-7.849
					C558.394,1751.025,557.81,1755.763,556.838,1759.744z"/>
			</g>
			<g>
				<g>
					<path style="fill:#355389;" d="M163.184,1683.251c72.708,22.301,135.64,68.341,196.145,113.071
						c40.801,30.163,37.371,35.891,45.907,40.85c1.383,0.804,3.169-0.528,2.72-2.097c-2.196-7.658-10.523-14.142-16.18-19.383
						c-6.585-6.101-13.605-11.722-20.795-17.086c-15.383-11.476-31.364-22.212-47.212-33.028
						c-32.24-22.002-65.223-43.203-100.5-60.021c-19.34-9.219-39.319-17.017-59.92-22.902
						C162.964,1682.545,162.804,1683.135,163.184,1683.251L163.184,1683.251z"/>
				</g>
				<path style="fill:#355389;" d="M234.477,1672.908c-1.061,2.962-5.914,11.229-5.616,20.363c-0.475,8.862,4.2,18.593,4.327,18.178
					c0.545,0.076-9.276-4.677-14.591-14.9c-5.943-9.588-7.379-24.646-4.555-30.489c4.221-12.647,16.179-16.91,19.907-12.271
					C237.814,1658.355,236.44,1666.284,234.477,1672.908z"/>
				<path style="fill:#355389;" d="M295.445,1708.853c-1.061,2.962-5.914,11.229-5.616,20.364c-0.476,8.863,4.2,18.593,4.327,18.177
					c0.545,0.076-9.276-4.677-14.591-14.9c-5.943-9.587-7.379-24.646-4.555-30.487c4.22-12.648,16.179-16.912,19.907-12.271
					C298.782,1694.301,297.408,1702.229,295.445,1708.853z"/>
				<path style="fill:#355389;" d="M223.82,1746.955c1.466-2.784,4.284-11.951,11.213-17.889c6.206-6.326,16.526-9.422,16.304-9.048
					c0.424,0.353-9.697-3.719-20.81-0.763c-11.067,2.061-23.126,11.147-25.526,17.178c-6.47,11.652-1.548,23.385,4.383,23.019
					C215.352,1759.236,220.265,1752.873,223.82,1746.955z"/>
				<path style="fill:#355389;" d="M156.233,1695.752c1.442-1.181,5.091-5.537,10.245-7.178c4.847-2.02,11.199-1.322,10.992-1.168
					c0.15,0.291-4.442-4.277-11.195-5.236c-6.522-1.436-15.203,0.737-17.902,3.477c-6.217,4.869-6.229,12.419-2.904,13.592
					C148.778,1700.502,152.928,1698.164,156.233,1695.752z"/>
				<path style="fill:#355389;" d="M170.159,1665.166c-0.074,1.866-1.352,7.41,0.439,12.525c1.305,5.1,5.678,9.77,5.676,9.512
					c0.323-0.054-6.079-0.988-10.901-5.824c-5.065-4.363-8.552-12.627-7.992-16.438c0.142-7.91,6.151-12.458,9.085-10.498
					C169.463,1656.338,170.093,1661.068,170.159,1665.166z"/>
			</g>
		</g>
	</g>
	<path style="fill:#184655;" d="M2976.807,1851.275H114.104c-6.001,0-10.866-4.865-10.866-10.866l0,0
		c0-6.002,4.865-10.867,10.866-10.867h2862.702c6.002,0,10.865,4.865,10.865,10.867l0,0
		C2987.672,1846.41,2982.809,1851.275,2976.807,1851.275z"/>
	<g>
		<path style="fill:#567883;" d="M1110.04,1819.244l16.434-17.053l38.68-5.244l10.619-11.933l39.927-5.569l37.435,23.496
			l16.014,28.711c0,0-171.75,2.266-171.75-0.002C1097.399,1829.385,1110.04,1819.244,1110.04,1819.244z"/>
		<path style="fill:#184655;" d="M869.287,675.225c-8.472,34.933,37.374,60.297,73.675,61.225
			c23.593,0.603,34.437-1.82,38.252-26.683c6.188-40.326-10.428-64.91-33.706-75.084
			C917.469,621.555,876.276,646.407,869.287,675.225z"/>
		<path style="fill:#F8A492;" d="M2052.329,1265.15c-4.032-10.453-13.456-20.266-16.893-33.25
			c-1.155-4.361-1.686-10.404-1.839-16.98c3.49-48.729,13.126-175.288,11.479-181.6c-1.95-7.479-62.028-139.574-62.028-139.574
			l-50.458,47.03l58.371,119.806c0.488,6.997,5.06,136.766,5.06,136.766s1.631,26.299,1.473,39.955
			c-0.482,6.625-1.834,12.439-3.187,17.416c-1.7,6.262-3.5,19.188-3.123,22.306c0.438,3.626,1.585,11.071,2.335,15.54
			c0.748,4.471,1.443,9.746,2.123,12.064c0.414,1.41,0.078,4.683-0.247,7.028c-0.484,3.495,3.584,5.786,6.283,3.524
			c2.545-2.131,3.331-6.83,3.807-9.751c1.339-8.247-1.338-21.282-0.099-21.026s12.841,19.584,14.309,21.707
			c1.469,2.125,15.073,24.515,19.149,27.98c4.076,3.464,6.899,1.5,6.645-1.576c-0.22-2.648-16.731-34.976-16.731-34.976
			s-2.098-4.126,0.303-3.526c2.4,0.602,17.449,29.922,20.507,33.873c3.058,3.953,6.956,5.15,8.067,0.563
			c1.351-5.579-16.637-35.879-16.637-35.879s-2.188-3.838-0.305-4.145c1.882-0.306,14.271,24.856,16.504,26.573
			c2.232,1.717,5.956,1.18,6.105-3.213c0.18-5.174-16.11-32.085-16.11-32.085s-0.658-2.395,0.723-2.058
			c1.381,0.336,13.47,21.027,16.51,22.186c2.552,0.973,3.464-1.309,3.464-1.309
			C2070.891,1294.091,2056.361,1275.604,2052.329,1265.15z"/>
		<path style="fill:#F7CC7F;" d="M1154.56,1638.439l-48.668,161.65l17.52,7.418l10.123-25.77l-3.309,29.285h4.866l5.062-18.353
			l-0.389,38.267c0,0,40.492,0,59.958-6.249v-27.331l6.229,26.16l6.174-3.402c0,0-3.06-32.129-2.669-30.178
			c0.389,1.953,5.061,16.79,5.061,16.79l6.619-1.092l-2.726-23.507l7.397,22.256l7.008-3.904l-35.819-162.041l-18.689-20.695
			L1154.56,1638.439z"/>
		<g>
			<path style="fill:#184655;" d="M1174.414,1654.105c-4.892,0-8.859-5.113-8.859-11.42V697.792c0-6.307,3.967-11.42,8.859-11.42
				c4.894,0,8.859,5.113,8.859,11.42v944.893C1183.273,1648.992,1179.308,1654.105,1174.414,1654.105z"/>
		</g>
		<path style="fill:#F7A491;" d="M1004.047,1775.988c-1.977-14.186-2.6-35.98-2.393-61.132H951.97
			c5.168,35.611,9.213,63.329,9.213,63.329l-1.235,11.256l-0.032,33.24h108.699c0,0-23.071-10.336-55.343-30.764
			C1010.884,1790.408,1005.384,1785.592,1004.047,1775.988z"/>
		<path style="fill:#F7A491;" d="M792.143,1767.637l14.445-41.394h-37.823c-1.969,26.569-2.705,44.5-2.705,44.5l-9.614,27.218
			l-6.616,30.479c0,0,24.851,5.974,41.727-3.348l2.297-28.015L792.143,1767.637z"/>
		<path style="fill:#F47458;" d="M988.345,867.944c-13.117-17.931-67.238-69.872-73.249-69.765
			c-17.527,0.308-75.056,0.33-86.303,6.042l0.543,98.88c1.834,8.298,41.547,137.581,39.242,165.88l0.275,0.265
			c33.286,32.146,85.782,29.621,116.225-5.592l0,0c0,0-0.131-39.217,4.557-74.99C996.977,932.623,1020.929,912.485,988.345,867.944z
			"/>
		<path style="fill:#F7A491;" d="M897.46,742.516c0,0,1.518,36.48-1.761,50.311c-3.276,13.831-7.645,14.877,20.482,19.085
			c11.049,1.653,21.703,4.12,21.703,4.12s-2.886-20.311-3.323-28.884c-0.718-14.12,3.251-57.724,3.251-57.724L897.46,742.516z"/>
		<path style="fill:#F47458;" d="M918.88,760.669c5.787,3.129,11.192,4.975,16.177,5.742c0.957-17.225,2.756-36.989,2.756-36.989
			l-38.498,12.49C903.784,749.374,910.135,755.942,918.88,760.669z"/>
		<path style="fill:#B75742;" d="M793.849,1796.947c-14.845,6.613-30.826,2.625-37.254,0.516l-2.136,5.751l-8.185,27.296
			c0,0,32.579,8.083,49.455-1.236L793.849,1796.947z"/>
		<path style="fill:#B75742;" d="M958.792,1830.938h113.003c4.178-0.379,5.197-3.795,3.748-5.9
			c-2.983-4.334-16.167-7.516-30.983-14.421c-25.992,2.739-80.53-15.206-84.633-21.238
			C957.56,1801.455,956.469,1830.42,958.792,1830.938z"/>
		<path style="fill:#355389;" d="M970.361,1070.875l-66.226,471.111l-60.313,217.227H778.21c0,0,15.229-175.009,47.868-237.006
			c0,0,14.252-166.129,28.513-267.732c2.131-15.188-8.421-54.607-5.671-64.793c21.154-78.316,39.785-120.7,39.785-120.7
			L970.361,1070.875z"/>
		<path style="fill:#466EB6;" d="M909.288,1274.574l15.327,180.977c0,0-15.667,103.427-4.913,172.05
			c10.754,68.624,24.999,131.612,24.999,131.612h60.313l11.985-341.764c0,0,23.182-185.701,15.155-236.059
			c-8.027-50.357-47.077-117.736-47.077-117.736l-94.871,4.338c0,0-25.728,92.186-21.378,123.123
			C872.058,1214.088,909.288,1274.574,909.288,1274.574z"/>
		<path style="fill:#184655;" d="M1202.2,1661.98l-6.666-46.346l-12.691-16.954h-6.615h-3.628h-6.615l-12.689,16.954l-6.196,46.715
			C1156.586,1657.223,1192.715,1656.854,1202.2,1661.98z"/>
		<path style="fill:#F8A492;" d="M1527.554,1090.035c17.813,5.563,16.489,8.967,18.786,9.605c2.716,0.753,36.75-15.086,36.75-15.086
			s100.583-45.85,105.936-48.564l37.096-114.95l47.416,27.923c0,0-42.166,128.343-47.475,132.68
			c-5.311,4.335-147.813,46.466-160.244,50.679c0,0-13.088,11.856-21.515,18.957c-8.427,7.101-19.15,9.072-21.787,10.608
			c-0.39,0.227-9.439,4.696-21.899,6.477c-10.739,1.533-1.335-6.017-1.335-6.017s19.328-7.27,18.534-9.075
			c-0.611-1.392-10.949,3.356-22.812,5.208c-3.05,0.475-6.061,0.931-8.831,1.323c-7.271,1.026-10.053-4.212-2.635-6.79
			c2.621-0.91,7.006-2.29,10.266-2.723c3.521-0.467,6.584-2.304,9.476-3.256c5.74-1.893,9.948-3.18,9.745-3.434
			c-0.263-0.328,0.625-1.707-2.629-1.326c-3.912,0.457-11.971,3.705-17.786,3.827c-3.296,0.067-10.162,0.729-10.162,0.729
			s-11.28-0.433-11.447-1.222c-0.914-4.274,7.131-6.798,11.646-6.167c2.978-1.411,10.226-1.854,10.226-1.854
			s14.353-4.958,13.726-7.504c-0.514-2.091-37.039,1.505-37.709-2.846c-0.546-3.552,10.377-5.245,10.377-5.245
			s6.697-0.396,8.907-0.737c2.59-0.401,10.243-2.339,10.243-2.339s26.339-8.283,25.581-10.642c-0.758-2.355-4.631-7.55-6.432-7.742
			c-1.8-0.193-5.175,1.584-6.976,1.391c-1.8-0.192-4.085-2.341-4.157-5.078c-0.074-2.736,8.771-5.908,8.771-5.908
			S1522.412,1088.43,1527.554,1090.035z"/>
		<path style="fill:#F48C7F;" d="M2003.139,1733.439c0,0,13.739,13.444,14.05,18.379c0.312,4.934,1.218,57.793-4.392,62.728
			c-5.608,4.934-22.084,8.433-16.786,13.983c4.002,4.195,34.8,3.299,55.212,2.172c5.959-0.328,13.43-48.006,15.791-55.012
			c3.427-10.178,11.762-33.102,8.646-40.194c-1.519-3.456-8.782-10.561-19.017-17.189c-10.766-6.974-21.066-22.498-21.066-22.498
			L2003.139,1733.439z"/>
		<path style="fill:#F7A491;" d="M1858.976,1764.748c0,0,12.296,34.832,12.311,34.922c0.914,5.519,4.514,19.154,4.514,24.17
			c0,18.848-84.754-15.998-65.759-24.352c1.72-0.756,7.112-6.794,7.679-13.208c0.871-9.884-7.141-22.28-7.141-22.28
			L1858.976,1764.748z"/>
		<g>
			<path style="fill:#184655;" d="M1726.02,1116.106c0,0-6.178,62.445-6.178,63.376c0,101.016-19.968,298.331-16.17,317.322
				c9.262,46.322,108.962,282.623,108.962,282.623l53.886-6.459l-70.219-282.92l25.839-113.877l36.565-225.098L1726.02,1116.106z"/>
			<path style="fill:#355389;" d="M1906.864,1171.34l10.224,59.186l27.662,243.582l105.352,238.065c0,0-14.819,34.641-36.681,39.506
				l-167.674-244.421L1741.593,1194.5l3.657-69.482L1906.864,1171.34z"/>
		</g>
		<path style="fill:#FAE0B2;" d="M1704.528,967.426l74.721,7.65c0,0,3.427-61.432,3.427-90.736c0-35.552-3.019-81.344-7.3-80.358
			c-12.016,2.767-28.196,9.418-37.831,22.694C1704.209,872.61,1704.528,967.426,1704.528,967.426z"/>
		<path style="fill:#F7CC7F;" d="M1741.237,878.069c-1.565,10.839-30.289,305.523-30.289,305.523
			c136.049,65.896,211.12,11.739,211.12,11.739s-4.451-206.931,0.885-235.097c3.529-18.635,7.931-142.46-4.11-145.928
			c-15.451-4.45-33.168-9.177-52.479-11.187c-16.484-1.716-80.518-2.71-91.975,1.149
			C1774.389,804.268,1747.817,832.486,1741.237,878.069z"/>
		<path style="fill:#FAE0B2;" d="M2015.957,939.329l-64.729,43.584c0,0-36.481-54.444-56.065-73.826
			c-24.532-24.281,8.937-98.663,24.742-94.455C1955.26,824.045,2015.957,939.329,2015.957,939.329z"/>
		<path style="fill:#F7CC7F;" d="M2055.977,1717.971c0,0-31.667,89.414-44.061,93.73c-3.291,1.146-19.084,4.054-22.063,11.059
			c-0.897,2.11,0,9.158,0,9.158h66.002c0,0,8.349-39.396,11.647-56.707c0,0,17.472-42.293,15.53-46.137
			S2055.977,1717.971,2055.977,1717.971z"/>
		<path style="fill:#F7CC7F;" d="M1880.622,1830.059l-9.707-30.748c0,0-20.383,8.648-30.574,7.206
			c-10.191-1.44-30.089-7.206-30.089-7.206c-40.68,13.428-74.006,19.945-67.943,30.748l0,0H1880.622z"/>
		<path style="fill:#F7A491;" d="M1848.278,742.612l10.009,61.373c0,0-36.641,78.09-58.534,71.516
			c-18.37-5.516-7.067-72.586-7.067-72.586s10.012-36.019,7.009-54.043C1796.692,730.847,1848.278,742.612,1848.278,742.612z"/>
		<path style="fill:#F47458;" d="M1799.694,748.872c-3.002-18.024,48.584-6.26,48.584-6.26l0.833,5.28
			c-1.511,3.532-3.354,6.555-5.594,8.873c-11.523,11.927-29.533,19.091-45.107,19.633
			C1799.969,766.679,1800.926,756.263,1799.694,748.872z"/>
		<path style="fill:#F7A491;" d="M1856.742,652.548c1.458-0.51,11.687,72.506-7.725,92.597c-19.41,20.09-57.23,26.666-70.795,10.843
			c-15.006-17.502-14.252-95.977,15.927-116.644C1824.33,618.677,1856.742,652.548,1856.742,652.548z"/>
		<path style="fill:#B75742;" d="M1849.627,624.415c10.592,1.203,24.988,6.833,39.854,30.507
			c18.278,29.109,4.779,61.36-16.499,77.183s-20.897,33.945-20.897,33.945l-3.448-9.298c-2.482-7.162-3.496-14.756-2.665-22.268
			c0.497-4.507,1.502-9.381,3.441-13.388c5.118-10.567-10.993-17.588-15.511-26.379c-3.479-6.771-3.647-22.257-9.128-33.447
			l-6.545-8.543c0,0-15.099-11.301-29.872-8.112C1773.584,647.803,1791.731,578.482,1849.627,624.415z"/>
		<path style="fill:#F7A491;" d="M1834.894,707.709c-0.153,8.909,4.058,16.202,9.405,16.289c5.348,0.088,9.808-7.063,9.962-15.971
			c0.154-8.908-4.056-16.202-9.403-16.29C1839.51,691.65,1835.049,698.801,1834.894,707.709z"/>
		<g>
			<path style="fill:#F47458;" d="M1285.554,1223.861l20.877,44.049c7.792,16.441,11.173,34.686,9.457,52.809
				c-0.976,10.308-1.545,20.839-0.481,25.701c2.433,11.114,24.842,165.414,24.842,165.414s8.381,35.478,17.266,38.729
				c8.884,3.25,117.472-20.805,144.789-21.869c27.318-1.064,108.557-14.1,125.826-31.252s13.165-80.066-6.718-126.053
				c-19.881-45.986-66.105-145.404-69.813-170.104c-3.71-24.701-6.925-96.934-20.512-101.006
				c-13.588-4.07-105.644,18.253-131.571,33.651C1373.585,1149.329,1281.804,1193.81,1285.554,1223.861z"/>
			<path style="opacity:0.5;fill:#184655;" d="M1312.068,1219.25c0,0,25.735-26.852,55.191-41.634
				c29.456-14.782,54.521-38.471,67.208-40.388c12.688-1.916,74.702-23.529,85.022-20.878s7.296,28.253-2.646,35.744
				c-9.943,7.492-42.703,51.096-57.062,64.746c-14.361,13.651-86.075,8.792-103.558,11.814S1290.045,1242.861,1312.068,1219.25z"/>
		</g>
		<g>
			<g>
				<path style="fill:#F7CC7F;" d="M1360.944,1726.07c-3.557-0.791-13.31-2.604-18.064-3.479c-1.541-0.284-3.056,0.604-3.566,2.089
					l-11.904,34.605c-0.136,0.394-0.344,0.754-0.619,1.066c-2.252,2.555-12.911,14.818-12.161,16.972
					c0.702,2.015,8.692,26.611,11.269,34.55c0.464,1.429-0.136,2.986-1.435,3.735l-16.989,9.786
					c-2.377,1.369-2.018,4.912,0.586,5.773c11.615,3.84,36.85,10.906,60.932,9.182c29.986-2.146,81.285-0.959,89.558-0.748
					c0.74,0.02,1.462-0.223,2.042-0.682l19.208-15.205c0.881-0.697,1.327-1.81,1.176-2.924l-3.973-29.181
					c-0.042-0.31-0.039-0.624,0.01-0.933l7.194-44.985c0.297-1.853-1.064-3.558-2.929-3.675l-45.652-2.872
					c-1.075-0.067-2.043-0.679-2.567-1.623l-7.776-13.97c-0.369-0.662-0.959-1.169-1.668-1.432l-33.644-12.481
					c-0.943-0.35-1.997-0.229-2.838,0.325l-23.762,15.658C1362.654,1726.095,1361.78,1726.256,1360.944,1726.07z"/>
				<path style="fill:#F7CC7F;" d="M1350.668,1737.487c0,0,18.319,4.415,19.146,4.45c0.827,0.037,25.841-15.759,25.841-15.759
					l-18.955,28.812L1350.668,1737.487z"/>
				<polygon style="fill:#F7CC7F;" points="1335.67,1801.947 1352.639,1818.218 1391.525,1819.94 1439.53,1796.571 
					1395.946,1807.389 1361.878,1809.205 				"/>
				<path style="fill:#F7CC7F;" d="M1446.854,1749.508c0,0,10.928,27.92,12.068,27.139c1.14-0.781,16.961-8.67,15.859-8.721
					c-1.104-0.049-14.338-0.08-14.338-0.08L1446.854,1749.508z"/>
			</g>
			<path style="fill:#FAE0B3;" d="M1459.626,1809.338l24.621-12.767c0,0,30.92-8.204,41.08-8.874l35.614-27.299
				c0,0,45.372,22.988,47.057,23.327c1.685,0.337,41.799,33.806,41.799,33.806l-11.124,12.17c0,0-195.85,8.987-195.85,6.522
				c0-0.845,0.277-3.736,0.641-7.177C1444.438,1819.83,1450.794,1812.074,1459.626,1809.338z"/>
			<polygon style="opacity:0.5;fill:#CFE0F9;" points="1536.671,1786.102 1525.579,1803.268 1578.418,1810.949 1536.671,1798.244 
							"/>
			<polygon style="opacity:0.5;fill:#CFE0F9;" points="1612.802,1793.529 1601.172,1800.375 1587.773,1787.697 1601.931,1795.557 
							"/>
			<polygon style="opacity:0.5;fill:#CFE0F9;" points="1463.133,1813.813 1486.14,1823.447 1498.275,1819.94 			"/>
		</g>
		<g>
			<path style="opacity:0.5;fill:#A6C6FF;" d="M1317.283,1833.143l0.726,0.006c12.703,0.135,23.392-8.809,26.002-20.834
				c0.437-2.014,2.248-3.422,4.293-3.398l11.46,0.121l0.12-11.705l-11.467-0.123c-2.044-0.021-3.823-1.465-4.221-3.484
				c-2.376-12.063-12.873-21.218-25.565-21.352l-0.727-0.009c-2.208-0.023-4.042,1.644-4.291,3.806l-39.849-0.422
				c-0.626-2.232-2.647-3.879-5.065-3.906l-57.546-0.609c-9.388-0.1-17.078,7.486-17.174,16.943l-0.136,13.266l-0.136,13.264
				c-0.097,9.457,7.436,17.205,16.825,17.305l57.544,0.61c2.419,0.025,4.474-1.579,5.146-3.796l39.85,0.422
				C1313.275,1831.412,1315.075,1833.117,1317.283,1833.143z"/>
			<path style="fill:#184655;" d="M1352.575,1810.441l0.151-14.771c0.008-0.763,0.633-1.374,1.396-1.366l5.123,0.055
				c0.762,0.008,1.373,0.633,1.366,1.395l-0.151,14.771c-0.008,0.764-0.633,1.375-1.396,1.366l-5.122-0.055
				C1353.18,1811.83,1352.567,1811.205,1352.575,1810.441z"/>
		</g>
		<path style="fill:#FFFFFF;" d="M1801.869,727.246l-26.507-5.286c0,0-1.392,10.218,10.198,12.88
			C1799.692,738.087,1801.869,727.246,1801.869,727.246z"/>
		<path style="fill:#F8A492;" d="M1200.67,863.686c2.602-2.786,2.869-5.165,1.699-7.095c-1.17-1.929-3.499-3.094-3.703-3.479
			c-0.205-0.384,0.442-1.398,0.442-1.398c1.728-1.708,0.843-4.894-0.28-6.297c-1.122-1.403-4.272-2.535-5.626-2.304
			c-1.354,0.231-1.725-0.287-1.725-0.287c-0.382-2.313-5.632-6.667-8.252-6.003c-2.619,0.666-11.173,8.61-12.383,8.948
			c-1.211,0.337-3.517,0.72-4.767,1.854c-1.251,1.133-13.162,6.615-14.933,8.221c-1.772,1.606-4.28,9.956-6.776,14.118
			c-2.497,4.163-3.731,12.877-4.248,15.244c-0.303,1.385-4.303,5.213-7.571,8.151c-2.657,2.459-84.594,67.552-108.026,90.19
			l-37.001-82.88l-59.629,10.446c-0.713-0.375,39.95,126.504,78.818,131.625c42.988,5.664,138.842-115.958,148.429-128.35
			c2.947-2.261,5.9-4.453,6.52-4.657c1.315-0.433,8.122-5.274,8.643-5.747c0.521-0.472,3.652-1.411,4.966-1.843
			c1.314-0.432,13.129-11.902,15.109-13.697c1.979-1.795,4.933-7.13,4.933-7.13l7.563-7.995
			C1208.423,867.451,1200.67,863.686,1200.67,863.686z"/>
		<path style="fill:#DE5B3E;" d="M891.223,846.52c-8.139,33.509,35.268,108.218,35.268,108.218s61.837-29.177,72.705-41.75
			c0,0-42.009-72.498-44.763-76.906c-12.465-19.955-29.387-19.979-40.422-18.677C905.151,818.451,891.223,846.52,891.223,846.52z"/>
		<path style="fill:#184655;" d="M890.214,856.79c28.617-24.978,39.412-80.047,20.744-112.855
			c12.967-16.874,21.278-13.864,18.387-34.855c-5.706-41.407,51.919-66.34,8.876-77.352c-43.498-8.725-79.679,17.997-99.572,44.541
			c-8.965,11.96-20.122,22.301-33.383,29.573c-26.274,14.406-40.131,48.979-26.177,85.02c-21.041,11.804-39.41,45.938-25.485,74.276
			c3.342,6.803,10.096,14.765,10.305,16.715c-0.401-2.4-19.6,60.804,52.102,82.329C889.178,986.144,904.243,915.907,890.214,856.79z
			"/>
		<path style="fill:#F7A491;" d="M922.601,651.724c0,0-15.959,5.371-24.466,21.486c-8.507,16.115-4.278,67.717,31.116,84.735
			c35.395,17.018,51.663-21.627,49.096-50.143C975.778,679.284,965.528,641.971,922.601,651.724z"/>
		<path style="fill:#FFFFFF;" d="M944.712,731.156l25.117-0.383c0,0-0.434,9.723-11.476,10.216
			C944.892,741.591,944.712,731.156,944.712,731.156z"/>
		<path style="fill:#184655;" d="M885.556,712.26c-5.236-26.669-3.185-46.879,15.761-56.639c18.946-9.76,35.141-19.434,52.098-1.895
			l3.832,2.162c0,0-31.994,8.843-33.78,25.835c-1.784,16.993-18.794,37.191-16.175,45.536c2.619,8.346,5.641,24.99,5.641,24.99
			l-7.007-5.761C905.925,746.488,890.792,738.929,885.556,712.26z"/>
		<path style="fill:#F7A491;" d="M918.535,702.053c2.644,7.365,0.646,14.758-4.461,16.514c-5.106,1.755-11.39-2.792-14.033-10.156
			c-2.643-7.365-0.645-14.758,4.461-16.515C909.608,690.141,915.892,694.688,918.535,702.053z"/>
	</g>
</g>
</svg>
